# xmcd
#
# Track frame offsets: 
#        150
#        20601
#        47354
#        79357
#        102009
#        117975
#        134523
#        155460
#        180137
#        214535
#        255006
#
# Disc length: 3674 seconds
#
# Revision: 0
# Processed by: cddbd v1.5.2PL0 Copyright (c) Steve Scherf et al.
# Submitted via: ExactAudioCopy v0.95b4
#
DISCID=7e0e580b
DTITLE=Granite Road - Granite Road
DYEAR=2004
DGENRE=Blues
TTITLE0=Blue On Black
TTITLE1=Call Me The Breeze
TTITLE2=Can't See You
TTITLE3=Comin On
TTITLE4=I Know A Little
TTITLE5=I Thank You
TTITLE6=I Just Want To Make Love To You
TTITLE7=Keep Your Hands To Yourself
TTITLE8=One Way Out
TTITLE9=Texas Flood
TTITLE10=Trouble No More
EXTD=
EXTT0=
EXTT1=
EXTT2=
EXTT3=
EXTT4=
EXTT5=
EXTT6=
EXTT7=
EXTT8=
EXTT9=
EXTT10=
PLAYORDER=
